<?xml version="1.0" encoding="utf-8"?>
<!-- Generator: Adobe Illustrator 19.2.1, SVG Export Plug-In . SVG Version: 6.00 Build 0)  -->
<!DOCTYPE svg PUBLIC "-//W3C//DTD SVG 1.1//EN" "http://www.w3.org/Graphics/SVG/1.1/DTD/svg11.dtd">
<svg version="1.1" id="scrolldown_icon" xmlns="http://www.w3.org/2000/svg" xmlns:xlink="http://www.w3.org/1999/xlink" x="0px"
	 y="0px" viewBox="0 0 28 41" style="enable-background:new 0 0 28 41;" xml:space="preserve" >
<path id="scrolldown_icon-1" stroke= "white" stroke-width="1" fill="white" fill-opacity="0.3" class="st0" d="M14,1C6.8,1,1,6.8,1,14v13c0,7.2,5.8,13,13,13s13-5.8,13-13V14C27,6.8,21.2,1,14,1z"/>
<path id="scrolldown_icon-2" fill="none" class="st0 draw-left" d="M14,1C6.8,1,1,6.8,1,14v13c0,7.2,5.8,13,13,13s13-5.8,13-13V14C27,6.8,21.2,1,14,1z"/>
<path id="scrolldown_icon-3" fill="none" class="st0 draw-right" d="M14,1C6.8,1,1,6.8,1,14v13c0,7.2,5.8,13,13,13s13-5.8,13-13V14C27,6.8,21.2,1,14,1z"/>
<circle class="st1 circle" cx="14" cy="16" r="2"/>
<style type="text/css">
.draw-left {
        stroke: #a7627f;
        stroke-width: 4;
        stroke-dasharray: 108 108;
    animation: draw-left 1500ms linear 0ms infinite;
}

@keyframes draw-left {
		0% {
		stroke-dashoffset: 108;
		}
    100% {
    stroke-dashoffset: 54;

    }
}
.draw-right {
        stroke: #a7627f;
        stroke-width: 4;
        stroke-dasharray: 108 108;
    animation: draw-right 1500ms linear 0ms infinite;
}

@keyframes draw-right {
		0% {
		stroke-dashoffset: -108;
		}
    100% {
    stroke-dashoffset: -54;

    }
}
.circle {
    animation: circle 1500ms linear 0ms infinite;
}

@keyframes circle {
		0% {
		transform: translateY(-7px);
		opacity: 0;
		}
		50%{
		opacity: 1;
		}
    100% {
    transform: translateY(14px);
		opacity: 0;
    }
}
</style>
</svg>